<svg width="819" height="143" viewBox="0 0 819 143" fill="none" xmlns="http://www.w3.org/2000/svg">
<g filter="url(#filter0_d_1_68)">
<path d="M51.78 4C64.2467 4 75.1833 6.43667 84.59 11.31C94.11 16.1833 101.42 23.1533 106.52 32.22C111.733 41.1733 114.34 51.6 114.34 63.5C114.34 75.4 111.733 85.8267 106.52 94.78C101.42 103.62 94.11 110.477 84.59 115.35C75.1833 120.223 64.2467 122.66 51.78 122.66H10.3V4H51.78ZM50.93 102.43C63.3967 102.43 73.03 99.03 79.83 92.23C86.63 85.43 90.03 75.8533 90.03 63.5C90.03 51.1467 86.63 41.5133 79.83 34.6C73.03 27.5733 63.3967 24.06 50.93 24.06H34.1V102.43H50.93ZM155.955 23.21V52.96H195.905V71.83H155.955V103.28H201.005V122.66H132.155V3.82999H201.005V23.21H155.955ZM263.604 123.85C255.331 123.85 247.851 122.433 241.164 119.6C234.591 116.767 229.377 112.687 225.524 107.36C221.671 102.033 219.687 95.7433 219.574 88.49H245.074C245.414 93.3633 247.114 97.2167 250.174 100.05C253.347 102.883 257.654 104.3 263.094 104.3C268.647 104.3 273.011 102.997 276.184 100.39C279.357 97.67 280.944 94.1567 280.944 89.85C280.944 86.3367 279.867 83.4467 277.714 81.18C275.561 78.9133 272.841 77.1567 269.554 75.91C266.381 74.55 261.961 73.0767 256.294 71.49C248.587 69.2233 242.297 67.0133 237.424 64.86C232.664 62.5933 228.527 59.25 225.014 54.83C221.614 50.2967 219.914 44.29 219.914 36.81C219.914 29.7833 221.671 23.6633 225.184 18.45C228.697 13.2367 233.627 9.27 239.974 6.55C246.321 3.71667 253.574 2.3 261.734 2.3C273.974 2.3 283.891 5.30333 291.484 11.31C299.191 17.2033 303.441 25.4767 304.234 36.13H278.054C277.827 32.05 276.071 28.7067 272.784 26.1C269.611 23.38 265.361 22.02 260.034 22.02C255.387 22.02 251.647 23.21 248.814 25.59C246.094 27.97 244.734 31.4267 244.734 35.96C244.734 39.1333 245.754 41.7967 247.794 43.95C249.947 45.99 252.554 47.69 255.614 49.05C258.787 50.2967 263.207 51.77 268.874 53.47C276.581 55.7367 282.871 58.0033 287.744 60.27C292.617 62.5367 296.811 65.9367 300.324 70.47C303.837 75.0033 305.594 80.9533 305.594 88.32C305.594 94.6667 303.951 100.56 300.664 106C297.377 111.44 292.561 115.803 286.214 119.09C279.867 122.263 272.331 123.85 263.604 123.85ZM350.028 4V122.66H326.228V4H350.028ZM456.162 39.7C453.442 34.7133 449.702 30.9167 444.942 28.31C440.182 25.7033 434.629 24.4 428.282 24.4C421.256 24.4 415.022 25.9867 409.582 29.16C404.142 32.3333 399.892 36.8667 396.832 42.76C393.772 48.6533 392.242 55.4533 392.242 63.16C392.242 71.0933 393.772 78.0067 396.832 83.9C400.006 89.7933 404.369 94.3267 409.922 97.5C415.476 100.673 421.936 102.26 429.302 102.26C438.369 102.26 445.792 99.88 451.572 95.12C457.352 90.2467 461.149 83.5033 462.962 74.89H422.162V56.7H486.422V77.44C484.836 85.7133 481.436 93.3633 476.222 100.39C471.009 107.417 464.266 113.083 455.992 117.39C447.832 121.583 438.652 123.68 428.452 123.68C417.006 123.68 406.636 121.13 397.342 116.03C388.162 110.817 380.909 103.62 375.582 94.44C370.369 85.26 367.762 74.8333 367.762 63.16C367.762 51.4867 370.369 41.06 375.582 31.88C380.909 22.5867 388.162 15.39 397.342 10.29C406.636 5.07667 416.949 2.47 428.282 2.47C441.656 2.47 453.272 5.75667 463.132 12.33C472.992 18.79 479.792 27.9133 483.532 39.7H456.162ZM605.52 122.66H581.72L527.83 41.23V122.66H504.03V3.82999H527.83L581.72 85.43V3.82999H605.52V122.66ZM652.84 23.21V52.96H692.79V71.83H652.84V103.28H697.89V122.66H629.04V3.82999H697.89V23.21H652.84ZM780.719 122.66L754.539 76.42H743.319V122.66H719.519V4H764.059C773.239 4 781.059 5.64333 787.519 8.93C793.979 12.1033 798.795 16.4667 801.969 22.02C805.255 27.46 806.899 33.58 806.899 40.38C806.899 48.2 804.632 55.2833 800.099 61.63C795.565 67.8633 788.822 72.17 779.869 74.55L808.259 122.66H780.719ZM743.319 58.57H763.209C769.669 58.57 774.485 57.04 777.659 53.98C780.832 50.8067 782.419 46.4433 782.419 40.89C782.419 35.45 780.832 31.2567 777.659 28.31C774.485 25.25 769.669 23.72 763.209 23.72H743.319V58.57Z" fill="url(#paint0_linear_1_68)"/>
</g>
<defs>
<filter id="filter0_d_1_68" x="1.81198e-05" y="-1.23978e-05" width="818.559" height="142.15" filterUnits="userSpaceOnUse" color-interpolation-filters="sRGB">
<feFlood flood-opacity="0" result="BackgroundImageFix"/>
<feColorMatrix in="SourceAlpha" type="matrix" values="0 0 0 0 0 0 0 0 0 0 0 0 0 0 0 0 0 0 127 0" result="hardAlpha"/>
<feOffset dy="8"/>
<feGaussianBlur stdDeviation="5.15"/>
<feComposite in2="hardAlpha" operator="out"/>
<feColorMatrix type="matrix" values="0 0 0 0 0 0 0 0 0 0 0 0 0 0 0 0 0 0 0.25 0"/>
<feBlend mode="normal" in2="BackgroundImageFix" result="effect1_dropShadow_1_68"/>
<feBlend mode="normal" in="SourceGraphic" in2="effect1_dropShadow_1_68" result="shape"/>
</filter>
<linearGradient id="paint0_linear_1_68" x1="351.507" y1="-40.84" x2="313.607" y2="175.475" gradientUnits="userSpaceOnUse">
<stop stop-color="#FF5F08"/>
<stop offset="1" stop-color="#783914"/>
</linearGradient>
</defs>
</svg>
