<svg width="939" height="143" viewBox="0 0 939 143" fill="none" xmlns="http://www.w3.org/2000/svg">
<g filter="url(#filter0_d_1_68)">
<path d="M51.78 4C64.2467 4 75.1833 6.43667 84.59 11.31C94.11 16.1833 101.42 23.1533 106.52 32.22C111.733 41.1733 114.34 51.6 114.34 63.5C114.34 75.4 111.733 85.8267 106.52 94.78C101.42 103.62 94.11 110.477 84.59 115.35C75.1833 120.223 64.2467 122.66 51.78 122.66H10.3V4H51.78ZM50.93 102.43C63.3967 102.43 73.03 99.03 79.83 92.23C86.63 85.43 90.03 75.8533 90.03 63.5C90.03 51.1467 86.63 41.5133 79.83 34.6C73.03 27.5733 63.3967 24.06 50.93 24.06H34.1V102.43H50.93ZM155.955 23.21V52.96H195.905V71.83H155.955V103.28H201.005V122.66H132.155V3.82999H201.005V23.21H155.955ZM329.224 4L285.704 122.66H256.804L213.284 4H238.784L271.424 98.35L303.894 4H329.224ZM367.293 23.21V52.96H407.243V71.83H367.293V103.28H412.343V122.66H343.493V3.82999H412.343V23.21H367.293ZM457.772 103.79H496.872V122.66H433.972V4H457.772V103.79ZM567.079 123.85C555.973 123.85 545.773 121.243 536.479 116.03C527.186 110.817 519.819 103.62 514.379 94.44C508.939 85.1467 506.219 74.6633 506.219 62.99C506.219 51.43 508.939 41.06 514.379 31.88C519.819 22.5867 527.186 15.3333 536.479 10.12C545.773 4.90667 555.973 2.3 567.079 2.3C578.299 2.3 588.499 4.90667 597.679 10.12C606.973 15.3333 614.283 22.5867 619.609 31.88C625.049 41.06 627.769 51.43 627.769 62.99C627.769 74.6633 625.049 85.1467 619.609 94.44C614.283 103.62 606.973 110.817 597.679 116.03C588.386 121.243 578.186 123.85 567.079 123.85ZM567.079 102.6C574.219 102.6 580.509 101.013 585.949 97.84C591.389 94.5533 595.639 89.9067 598.699 83.9C601.759 77.8933 603.289 70.9233 603.289 62.99C603.289 55.0567 601.759 48.1433 598.699 42.25C595.639 36.2433 591.389 31.6533 585.949 28.48C580.509 25.3067 574.219 23.72 567.079 23.72C559.939 23.72 553.593 25.3067 548.039 28.48C542.599 31.6533 538.349 36.2433 535.289 42.25C532.229 48.1433 530.699 55.0567 530.699 62.99C530.699 70.9233 532.229 77.8933 535.289 83.9C538.349 89.9067 542.599 94.5533 548.039 97.84C553.593 101.013 559.939 102.6 567.079 102.6ZM732.006 40.72C732.006 47.0667 730.476 53.0167 727.416 58.57C724.469 64.1233 719.766 68.6 713.306 72C706.959 75.4 698.912 77.1 689.166 77.1H669.276V122.66H645.476V4H689.166C698.346 4 706.166 5.58667 712.626 8.76C719.086 11.9333 723.902 16.2967 727.076 21.85C730.362 27.4033 732.006 33.6933 732.006 40.72ZM688.146 57.89C694.719 57.89 699.592 56.4167 702.766 53.47C705.939 50.41 707.526 46.16 707.526 40.72C707.526 29.16 701.066 23.38 688.146 23.38H669.276V57.89H688.146ZM772.704 23.21V52.96H812.654V71.83H772.704V103.28H817.754V122.66H748.904V3.82999H817.754V23.21H772.704ZM900.582 122.66L874.402 76.42H863.182V122.66H839.382V4H883.922C893.102 4 900.922 5.64333 907.382 8.93C913.842 12.1033 918.659 16.4667 921.832 22.02C925.119 27.46 926.762 33.58 926.762 40.38C926.762 48.2 924.495 55.2833 919.962 61.63C915.429 67.8633 908.685 72.17 899.732 74.55L928.122 122.66H900.582ZM863.182 58.57H883.072C889.532 58.57 894.349 57.04 897.522 53.98C900.695 50.8067 902.282 46.4433 902.282 40.89C902.282 35.45 900.695 31.2567 897.522 28.31C894.349 25.25 889.532 23.72 883.072 23.72H863.182V58.57Z" fill="url(#paint0_linear_1_68)"/>
</g>
<defs>
<filter id="filter0_d_1_68" x="1.81198e-05" y="-1.23978e-05" width="938.422" height="142.15" filterUnits="userSpaceOnUse" color-interpolation-filters="sRGB">
<feFlood flood-opacity="0" result="BackgroundImageFix"/>
<feColorMatrix in="SourceAlpha" type="matrix" values="0 0 0 0 0 0 0 0 0 0 0 0 0 0 0 0 0 0 127 0" result="hardAlpha"/>
<feOffset dy="8"/>
<feGaussianBlur stdDeviation="5.15"/>
<feComposite in2="hardAlpha" operator="out"/>
<feColorMatrix type="matrix" values="0 0 0 0 0 0 0 0 0 0 0 0 0 0 0 0 0 0 0.25 0"/>
<feBlend mode="normal" in2="BackgroundImageFix" result="effect1_dropShadow_1_68"/>
<feBlend mode="normal" in="SourceGraphic" in2="effect1_dropShadow_1_68" result="shape"/>
</filter>
<linearGradient id="paint0_linear_1_68" x1="402.789" y1="-40.84" x2="369.461" y2="177.017" gradientUnits="userSpaceOnUse">
<stop stop-color="#FF5F08"/>
<stop offset="1" stop-color="#783914"/>
</linearGradient>
</defs>
</svg>
